<svg version="1.1" xmlns="http://www.w3.org/2000/svg" xmlns:xlink="http://www.w3.org/1999/xlink" width="400" height="400" viewBox="0 0 400 400"><defs/><g><path fill="none" stroke="rgb(255,0,0)" paint-order="fill stroke markers" d=" M 28 25 L 242 25 L 242 25 A 3 3 0 0 1 245 28 L 245 102 L 245 102 A 3 3 0 0 1 242 105 L 28 105 L 28 105 A 3 3 0 0 1 25 102 L 25 28 L 25 28 A 3 3 0 0 1 28 25 Z" stroke-opacity="1" stroke-linecap="round" stroke-miterlimit="10" stroke-dasharray=""/><g><text fill="rgb(0,0,0)" stroke="none" font-family="sans-serif" font-size="41px" font-style="normal" font-weight="normal" text-decoration="undefined" x="90" y="80" text-anchor="start" dominant-baseline="alphabetic" transform="matrix(1 0 0 1 0 0)" fill-opacity="1">FabLab</text></g><path fill="none" stroke="rgb(0,0,0)" paint-order="fill stroke markers" d=" M 60 90 L 40 60" stroke-opacity="1" stroke-linecap="round" stroke-miterlimit="10" stroke-width="2" stroke-dasharray=""/><path fill="none" stroke="rgb(0,0,0)" paint-order="fill stroke markers" d=" M 60 90 L 80 60" stroke-opacity="1" stroke-linecap="round" stroke-miterlimit="10" stroke-width="2" stroke-dasharray=""/><path fill="none" stroke="rgb(0,0,0)" paint-order="fill stroke markers" d=" M 40 60 L 80 60" stroke-opacity="1" stroke-linecap="round" stroke-miterlimit="10" stroke-width="2" stroke-dasharray=""/><path fill="none" stroke="rgb(0,0,0)" paint-order="fill stroke markers" d=" M 40 60 L 50 50" stroke-opacity="1" stroke-linecap="round" stroke-miterlimit="10" stroke-width="2" stroke-dasharray=""/><path fill="none" stroke="rgb(0,0,0)" paint-order="fill stroke markers" d=" M 80 60 L 70 50" stroke-opacity="1" stroke-linecap="round" stroke-miterlimit="10" stroke-width="2" stroke-dasharray=""/><path fill="none" stroke="rgb(0,0,0)" paint-order="fill stroke markers" d=" M 50 50 L 70 50" stroke-opacity="1" stroke-linecap="round" stroke-miterlimit="10" stroke-width="2" stroke-dasharray=""/><path fill="none" stroke="rgb(0,0,0)" paint-order="fill stroke markers" d=" M 50 50 L 60 60" stroke-opacity="1" stroke-linecap="round" stroke-miterlimit="10" stroke-width="2" stroke-dasharray=""/><path fill="none" stroke="rgb(0,0,0)" paint-order="fill stroke markers" d=" M 70 50 L 60 60" stroke-opacity="1" stroke-linecap="round" stroke-miterlimit="10" stroke-width="2" stroke-dasharray=""/></g></svg>